<svg id="Layer_1" enable-background="new 0 0 512 512" viewBox="0 0 512 512" xmlns="http://www.w3.org/2000/svg"><g><g><g><g><g><g><path d="m89.8 454.4c-3.9 0-7.6-1.5-10.4-4.2-2.9-2.9-4.5-6.6-4.5-10.8v-213.8c0-1.6.7-3 1.9-3.9l176.2-131.3c1.8-1.3 4.2-1.3 5.8 0l176.2 131.3c1.2.9 1.9 2.4 1.9 3.9v213.6c0 8.4-6.8 15.1-15.1 15.1h-331.7c-.1.1-.2.1-.3.1zm-5.2-226.4v211.3c0 1.5.6 2.8 1.6 3.8s2.3 1.5 3.7 1.5h331.9c3 0 5.4-2.4 5.4-5.4v-211.2l-171.3-127.6z" fill="#f2ca4b"/></g></g><g><path d="m79.8 230.5c-.3 0-.6 0-.9-.1l-29.3-5.5c-4.2-.8-7.5-4-8.4-8.2s.6-8.4 4.1-11l200.6-144.9c6-4.3 14.1-4.3 20.1 0l200.6 144.7c3.5 2.6 5.2 6.8 4.2 11.1-.9 4.2-4.2 7.3-8.5 8.1l-29.3 5.5c-2.7.5-5.2-1.2-5.7-3.9s1.2-5.2 3.9-5.7l29.3-5.5c.2 0 .6-.1.7-.7.1-.4 0-.7-.4-1l-200.6-144.7c-2.6-1.8-6.1-1.8-8.7 0l-200.5 144.9c-.1.1-.5.4-.4.9.1.4.4.6.7.7l29.2 5.5c2.7.5 4.4 3 3.9 5.7-.2 2.5-2.3 4.1-4.6 4.1z" fill="#f2ca4b"/></g></g></g><g><path d="m296.6 454.4c-2.7 0-4.9-2.2-4.9-4.9v-140.2c0-.6-.4-.9-.9-.9h-69.8c-.6 0-.9.4-.9.9v140.3c0 2.7-2.2 4.9-4.9 4.9s-4.9-2.2-4.9-4.9v-140.3c0-6 4.7-10.6 10.6-10.6h69.9c6 0 10.6 4.7 10.6 10.6v140.3c.1 2.6-2.1 4.8-4.8 4.8z" fill="#f2ca4b"/></g><g><path d="m255.9 245.7c-20.4 0-36.9-16.6-36.9-36.9 0-20.4 16.6-36.9 36.9-36.9s36.9 16.6 36.9 36.9-16.5 36.9-36.9 36.9zm0-64.2c-15 0-27.1 12.2-27.1 27.1s12.2 27.1 27.1 27.1c15 0 27.1-12.2 27.1-27.1s-12.1-27.1-27.1-27.1z" fill="#f2ca4b"/></g></g><g><path d="m402.5 170.3c-2.7 0-4.9-2.2-4.9-4.9v-83.4h-36.4v50c0 2.7-2.2 4.9-4.9 4.9s-4.9-2.2-4.9-4.9v-51.3c0-4.7 3.8-8.5 8.5-8.5h38.9c4.7 0 8.5 3.8 8.5 8.5v84.6c.1 2.8-2.1 5-4.8 5z" fill="#f2ca4b"/></g></g></svg>