<svg height="512" viewBox="0 0 60 60" width="512" xmlns="http://www.w3.org/2000/svg"><g id="Page-1" fill="none" fill-rule="evenodd"><g id="031---Home-Page"><g id="Icons" transform="translate(1 1)"><path id="Path" d="m58 4v6h-29c-1.1032019-.0032948-1.9967052-.89679813-2-2v-2c-.0032948-1.10320187-.8967981-1.9967052-2-2h-25c0-2.209139 1.790861-4 4-4h50c2.209139 0 4 1.790861 4 4z" fill="#3f51b5"/><path id="Path" d="m54 0h-3c2.209139 0 4 1.790861 4 4v6h3v-6c0-2.209139-1.790861-4-4-4z" fill="#283593"/><path id="Path" d="m58 10v4h-58v-10h25c1.1032019.0032948 1.9967052.89679813 2 2v2c.0032948 1.10320187.8967981 1.9967052 2 2z" fill="#02a9f4"/><path id="Rectangle" d="m55 10h3v4h-3z" fill="#0377bc"/><path id="Path" d="m58 14v34c0 2.209139-1.790861 4-4 4h-50c-2.209139 0-4-1.790861-4-4v-34z" fill="#f5f5f5"/><path id="Path" d="m55 14v34c0 2.209139-1.790861 4-4 4h3c2.209139 0 4-1.790861 4-4v-34z" fill="#cfd8dc"/><path id="Path" d="m47.98 41h-3.98l-13.15-12.27c-1.0395022-.9778719-2.6604978-.9778719-3.7 0l-13.15 12.27h-3.98c-.82344829.0014415-1.56500365-.4980633-1.87310036-1.261703-.3080967-.7636397-.12079755-1.6378985.47310036-2.208297l18.6-17.82c.9965966-.9498416 2.5634034-.9498416 3.56 0l18.6 17.82c.5938979.5703985.7811971 1.4446573.4731004 2.208297-.3080968.7636397-1.0496521 1.2631445-1.8731004 1.261703z" fill="#ff9801"/><path id="Path" d="m49.38 37.53-18.6-17.82c-.8979374-.8533423-2.2765864-.9453924-3.28-.219.0981422.0666337.1916871.1397991.28.219l18.6 17.82c.5938979.5703985.7811971 1.4446573.4731004 2.208297-.3080968.7636397-1.0496521 1.2631445-1.8731004 1.261703h3c.8234483.0014415 1.5650036-.4980633 1.8731004-1.261703.3080967-.7636397.1207975-1.6378985-.4731004-2.208297z" fill="#f57c00"/><path id="Path" d="m44 41v15c-.0032948 1.1032019-.8967981 1.9967052-2 2h-6c-1.1032019-.0032948-1.9967052-.8967981-2-2v-10c-.0032948-1.1032019-.8967981-1.9967052-2-2h-6c-1.1032019.0032948-1.9967052.8967981-2 2v10c-.0032948 1.1032019-.8967981 1.9967052-2 2h-6c-1.1032019-.0032948-1.9967052-.8967981-2-2v-15l13.15-12.27c1.0395022-.9778719 2.6604978-.9778719 3.7 0z" fill="#ffdc00"/><path id="Path" d="m30.85 28.73c-.9158785-.8626535-2.3073685-.9752188-3.35-.271.1238588.0806417.2409155.1712771.35.271l13.15 12.27v15c-.0032948 1.1032019-.8967981 1.9967052-2 2h3c1.1032019-.0032948 1.9967052-.8967981 2-2v-15z" fill="#fec108"/><path id="Path" d="m37 25.67v-2.67c.0032948-1.1032019.8967981-1.9967052 2-2h4c1.1032019.0032948 1.9967052.8967981 2 2v10.33z" fill="#ff5722"/><path id="Path" d="m43 21h-3c1.1032019.0032948 1.9967052.8967981 2 2v7.457l3 2.873v-10.33c-.0032948-1.1032019-.8967981-1.9967052-2-2z" fill="#d84315"/></g><g id="Icons_copy" fill="#000"><path id="Path" d="m17 9h-11c-.55228475 0-1 .44771525-1 1 0 .5522847.44771525 1 1 1h11c.5522847 0 1-.4477153 1-1 0-.55228475-.4477153-1-1-1z"/><path id="Path" d="m24.707 8.293c-.3904999-.39038194-1.0235001-.39038194-1.414 0l-.293.293-.293-.293c-.3923789-.37897221-1.0160848-.37355237-1.4018186.01218142-.3857338.3857338-.3911536 1.00943969-.0121814 1.40181858l.293.293-.293.293c-.2599566.2510745-.3642126.6228779-.2726972.9725073.0915155.3496295.3645604.6226744.7141899.7141899.3496294.0915154.7214328-.0127406.9725073-.2726972l.293-.293.293.293c.3923789.3789722 1.0160848.3735524 1.4018186-.0121814s.3911536-1.0094397.0121814-1.4018186l-.293-.293.293-.293c.3903819-.39049985.3903819-1.02350015 0-1.414z"/><circle id="Oval" cx="53" cy="6" r="1"/><circle id="Oval" cx="49" cy="6" r="1"/><circle id="Oval" cx="45" cy="6" r="1"/><path id="Shape" d="m55 0h-50c-2.76005315.00330612-4.99669388 2.23994685-5 5v44c.00330612 2.7600532 2.23994685 4.9966939 5 5h9v3c0 1.6568542 1.3431458 3 3 3h6c1.6568542 0 3-1.3431458 3-3v-3h8v3c0 1.6568542 1.3431458 3 3 3h6c1.6568542 0 3-1.3431458 3-3v-3h9c2.7600532-.0033061 4.9966939-2.2399468 5-5v-44c-.0033061-2.76005315-2.2399468-4.99669388-5-5zm-53 6h24c.5522847 0 1 .44771525 1 1v2c0 1.6568542 1.3431458 3 3 3h28v2h-56zm3-4h50c1.6568542 0 3 1.34314575 3 3v5h-28c-.5522847 0-1-.44771525-1-1v-2c0-1.65685425-1.3431458-3-3-3h-23.816c.42225455-1.19435087 1.54921457-1.99474861 2.816-2zm40 29.99-6-5.748v-2.242c0-.5522847.4477153-1 1-1h4c.5522847 0 1 .4477153 1 1zm4.687 7.26c.2993383.287895.3935456.7288783.2379744 1.1139557-.1555712.3850773-.5296597.6368691-.9449744.6360443h-3.586l-12.861-12c-1.4281634-1.3265039-3.6378366-1.3265039-5.066 0l-12.861 12h-3.586c-.4150892.0014-.789286-.2498467-.9451154-.634578s-.061949-.8255653.2371154-1.113422l18.6-17.817c.6105706-.5799391 1.5684294-.5799391 2.179 0zm-23.687 12.75v-5c0-.5522847.4477153-1 1-1h6c.5522847 0 1 .4477153 1 1v5zm17 6h-6c-.5522847 0-1-.4477153-1-1v-10c0-1.6568542-1.3431458-3-3-3h-6c-1.6568542 0-3 1.3431458-3 3v10c0 .5522847-.4477153 1-1 1h-6c-.5522847 0-1-.4477153-1-1v-14.566l12.831-11.976c.6595408-.611092 1.6784592-.611092 2.338 0l12.831 11.976v14.566c0 .5522847-.4477153 1-1 1zm12-6h-9v-9h2.98c1.2318079.0014844 2.3407229-.7462783 2.8010872-1.8888269.4603644-1.1425487.1796457-2.4502331-.7090872-3.3031731l-4.072-3.902v-9.906c0-1.6568542-1.3431458-3-3-3h-4c-1.6568542 0-3 1.3431458-3 3v.326l-4.531-4.341c-1.3834343-1.3177143-3.5575657-1.3177143-4.941 0l-18.601 17.824c-.88812922.8531777-1.16831232 2.1606329-.70778359 3.3028234.46052873 1.1421904 1.56924649 1.8896437 2.80078359 1.8881766h2.98v9h-9c-1.65685425 0-3-1.3431458-3-3v-33h56v33c0 1.6568542-1.3431458 3-3 3z" fill-rule="nonzero"/></g></g></g></svg>