<svg id="Layer_1" enable-background="new 0 0 64 64" height="512" viewBox="0 0 64 64" width="512" xmlns="http://www.w3.org/2000/svg"><g><path d="m54 64h-16c-1.104 0-2-.896-2-2v-12h-8v12c0 1.104-.896 2-2 2h-16c-1.104 0-2-.896-2-2v-28h-6c-.809 0-1.538-.487-1.848-1.235-.31-.747-.139-1.607.434-2.179l30-30c.78-.781 2.048-.781 2.828 0l30 30c.572.572.743 1.432.434 2.179-.31.748-1.039 1.235-1.848 1.235h-6v28c0 1.105-.895 2-2 2zm-14-4h12v-28c0-1.104.896-2 2-2h3.171l-25.171-25.171-25.171 25.171h3.171c1.104 0 2 .896 2 2v28h12v-12c0-1.104.896-2 2-2h12c1.104 0 2 .896 2 2z"/></g></svg>