<svg xmlns="http://www.w3.org/2000/svg" version="1.1" xmlns:xlink="http://www.w3.org/1999/xlink" xmlns:svgjs="http://svgjs.com/svgjs" width="512" height="512" x="0" y="0" viewBox="0 0 64 64" style="enable-background:new 0 0 512 512" xml:space="preserve" class=""><g><path d="M54 64H38a2 2 0 0 1-2-2V50h-8v12a2 2 0 0 1-2 2H10a2 2 0 0 1-2-2V34H2a2 2 0 0 1-1.414-3.414l30-30a2 2 0 0 1 2.828 0l30 30A2 2 0 0 1 62 34h-6v28a2 2 0 0 1-2 2zm-14-4h12V32a2 2 0 0 1 2-2h3.171L32 4.829 6.829 30H10a2 2 0 0 1 2 2v28h12V48a2 2 0 0 1 2-2h12a2 2 0 0 1 2 2z" fill="#cf7716" data-original="#000000" opacity="1" class=""></path></g></svg>