<svg version="1.1" id="Capa_1" xmlns="http://www.w3.org/2000/svg" xmlns:xlink="http://www.w3.org/1999/xlink" x="0px" y="0px" viewBox="0 0 512 512" style="enable-background:new 0 0 512 512;" xml:space="preserve">
<g>
	<g>
		<g>
			<g>
				<g>
					<ellipse style="fill:#FFCBBE;" cx="393.261" cy="170.498" rx="33.308" ry="29.453"/>
					<ellipse style="fill:#FFCBBE;" cx="118.739" cy="170.498" rx="33.308" ry="29.453"/>
					<path style="fill:#83DEFF;" d="M369.63,386.76H211.35c-16.162-48.091,10.95-99.222,64.25-102.35h29.79&#10;&#9;&#9;&#9;&#9;&#9;&#9;C343.4,302.79,369.64,341.7,369.63,386.76z"/>
					<path style="fill:#5AD6FF;" d="M275.6,284.41c-38.02,18.38-64.25,57.29-64.25,102.35h-68.98&#10;&#9;&#9;&#9;&#9;&#9;&#9;c-0.01-45.06,26.23-83.97,64.24-102.35H275.6z"/>
					<path style="fill:#FFDDCF;" d="M299.53,286.9c0,24.04-19.49,43.53-43.53,43.53c-9.23,0-17.79-2.87-24.84-7.78&#10;&#9;&#9;&#9;&#9;&#9;&#9;c0-23.103,18.799-38.752,44.44-38.24h23.86C299.5,285.23,299.53,286.06,299.53,286.9z"/>
					<path style="fill:#FFCBBE;" d="M275.6,284.41c-17.95,8.68-33.26,21.92-44.44,38.24c-11.3-7.86-18.69-20.94-18.69-35.75&#10;&#9;&#9;&#9;&#9;&#9;&#9;c0-0.84,0.03-1.67,0.07-2.49H275.6z"/>
					<path style="fill:#FFDDCF;" d="M393.85,170.58c0,52.21-37.12,96.75-89.3,114.1c-73.39-4.439-106.114-61.89-106.114-114.1&#10;&#9;&#9;&#9;&#9;&#9;&#9;c0-52.21,43.606-109.805,106.114-114.11C356.73,73.82,393.85,118.36,393.85,170.58z"/>
					<path style="fill:#FFCBBE;" d="M304.55,284.68c-15.1,5.04-31.46,7.79-48.55,7.79c-76.13,0-137.85-54.57-137.85-121.89&#10;&#9;&#9;&#9;&#9;&#9;&#9;c0-67.33,61.72-121.9,137.85-121.9c17.09,0,33.45,2.75,48.55,7.79c-52.17,17.36-89.29,61.9-89.29,114.11&#10;&#9;&#9;&#9;&#9;&#9;&#9;C215.26,222.79,252.38,267.33,304.55,284.68z"/>
				</g>
			</g>
			<path style="fill:#EAAA83;" d="M389.85,439.17v42.26c0,12.74-10.32,23.07-23.07,23.07H231.77c-30.213,0-35.49-10.33-35.49-23.07&#10;&#9;&#9;&#9;&#9;l12.42-42.26H389.85z"/>
			<path style="fill:#E4996D;" d="M231.77,504.5h-86.55c-12.75,0-23.07-10.33-23.07-23.07v-42.26h86.55v42.26&#10;&#9;&#9;&#9;&#9;C208.7,494.17,219.03,504.5,231.77,504.5z"/>
			<path style="fill:#77899B;" d="M435.71,405.05v20.6c0,14.21-11.52,25.74-25.73,25.74H240.99c-29.64,0-37.25-11.53-37.25-25.74&#10;&#9;&#9;&#9;&#9;v-20.6c0-14.21,7.851-25.73,37.25-25.73h168.99C424.19,379.32,435.71,390.84,435.71,405.05z"/>
			<path style="fill:#6B7D8E;" d="M240.99,451.39H102.02c-14.21,0-25.73-11.53-25.73-25.74v-20.6c0-14.21,11.52-25.73,25.73-25.73&#10;&#9;&#9;&#9;&#9;h138.97c-14.21,0-25.73,11.52-25.73,25.73v20.6C215.26,439.86,226.78,451.39,240.99,451.39z"/>
			<path style="fill:#77899B;" d="M383.808,278.364c-5.967,5.967-15.641,5.967-21.607,0l-14.829-14.829&#10;&#9;&#9;&#9;&#9;c-5.967-5.967-5.967-15.641,0-21.607c5.967-5.967,15.641-5.967,21.607,0l14.829,14.829&#10;&#9;&#9;&#9;&#9;C389.774,262.723,389.774,272.397,383.808,278.364z"/>
		</g>
		<g>
			<ellipse style="fill:#FFA1AC;" cx="176.443" cy="199.755" rx="29.355" ry="23.377"/>
			<ellipse style="fill:#FFA1AC;" cx="335.556" cy="199.755" rx="29.355" ry="23.377"/>
		</g>
		<path style="fill:#77899B;" d="M417.69,150.48c-9.33,0-18.08-1.13-26.33-3.1c-7.2-26.68-24.71-49.31-49-61.8&#10;&#9;&#9;&#9;c-1.73,7.13-5.88,14.56-12.21,20.89c-13.96,13.96-33.23,17.33-43.03,7.53c-2.14-2.14-3.65-4.73-4.56-7.61&#10;&#9;&#9;&#9;c-7.07,8.35-16.35,14.52-25.76,17.87c-35.083-17.396-41.109-99.018,11.14-116.37C351.67,13.29,417.69,75.06,417.69,150.48z"/>
		<path style="fill:#6B7D8E;" d="M256.8,124.26c-13.3,4.73-26.87,3.81-34.85-4.62c-4.15-4.15-6.53-9.56-7.27-15.61&#10;&#9;&#9;&#9;c-13.65,11.85-31.17,14.24-40.36,5.05c-4.69-4.69-6.36-11.54-5.3-18.93c-21.25,9.27-38.12,26.27-48.39,57.27&#10;&#9;&#9;&#9;c-8.45,2.32-17.11,3.06-26.32,3.06C94.31,71.51,166.7,7.5,256,7.5c4.02,0,8,0.13,11.94,0.39&#10;&#9;&#9;&#9;C233.02,31.68,236.58,100.64,256.8,124.26z"/>
	</g>
	<g>
		<path style="fill:none;stroke:#000000;stroke-width:15;stroke-linecap:round;stroke-linejoin:round;stroke-miterlimit:10;" d="&#10;&#9;&#9;&#9;M389.855,199.798c19.473,1.854,36.834-11.965,36.714-29.301c0-7.731-3.374-14.763-8.884-20.018"/>
		<path style="fill:none;stroke:#000000;stroke-width:15;stroke-linecap:round;stroke-linejoin:round;stroke-miterlimit:10;" d="&#10;&#9;&#9;&#9;M94.315,150.48c-5.511,5.255-8.884,12.286-8.884,20.018c-0.12,17.336,17.243,31.155,36.714,29.301"/>
		<path style="fill:none;stroke:#000000;stroke-width:15;stroke-linecap:round;stroke-linejoin:round;stroke-miterlimit:10;" d="&#10;&#9;&#9;&#9;M409.976,451.385H102.024c-14.212,0-25.733-11.521-25.733-25.733v-20.603c0-14.212,11.521-25.733,25.733-25.733h307.952&#10;&#9;&#9;&#9;c14.212,0,25.733,11.521,25.733,25.733v20.603C435.709,439.864,424.188,451.385,409.976,451.385z"/>
		<path style="fill:none;stroke:#000000;stroke-width:15;stroke-linecap:round;stroke-linejoin:round;stroke-miterlimit:10;" d="&#10;&#9;&#9;&#9;M400.722,379.316v-65.978c0-7.977-2.576-15.741-7.344-22.137l-9.57-12.837"/>
		<path style="fill:none;stroke:#000000;stroke-width:15;stroke-linecap:round;stroke-linejoin:round;stroke-miterlimit:10;" d="&#10;&#9;&#9;&#9;M383.808,278.364c-5.967,5.967-15.641,5.967-21.607,0l-14.829-14.829c-5.967-5.967-5.967-15.641,0-21.607&#10;&#9;&#9;&#9;c5.967-5.967,15.641-5.967,21.607,0l14.829,14.829C389.774,262.723,389.774,272.397,383.808,278.364z"/>
		
			<line style="fill:none;stroke:#000000;stroke-width:15;stroke-linecap:round;stroke-linejoin:round;stroke-miterlimit:10;" x1="193.551" y1="165.252" x2="193.551" y2="177.252"/>
		
			<line style="fill:none;stroke:#000000;stroke-width:15;stroke-linecap:round;stroke-linejoin:round;stroke-miterlimit:10;" x1="318.449" y1="165.252" x2="318.449" y2="177.252"/>
		<path style="fill:none;stroke:#000000;stroke-width:15;stroke-linecap:round;stroke-linejoin:round;stroke-miterlimit:10;" d="&#10;&#9;&#9;&#9;M239.536,176.895c4.003,4.594,9.892,7.501,16.464,7.501s12.461-2.907,16.464-7.501"/>
		<path style="fill:none;stroke:#000000;stroke-width:15;stroke-linecap:round;stroke-linejoin:round;stroke-miterlimit:10;" d="&#10;&#9;&#9;&#9;M339.8,28.177C315.362,15.056,286.679,7.5,256,7.5c-89.301,0-161.693,64.014-161.693,142.98c9.208,0,17.87-0.735,26.326-3.06&#10;&#9;&#9;&#9;c10.267-30.999,27.141-47.996,48.385-57.273c-1.053,7.398,0.615,14.248,5.301,18.935c9.193,9.193,26.707,6.799,40.365-5.049&#10;&#9;&#9;&#9;c0.737,6.05,3.119,11.461,7.265,15.607c13.62,14.396,43.532,6.899,60.61-13.253c0.911,2.886,2.422,5.476,4.561,7.615&#10;&#9;&#9;&#9;c9.802,9.803,29.067,6.431,43.029-7.531c6.333-6.333,10.479-13.756,12.213-20.893c24.289,12.49,41.799,35.125,48.997,61.806&#10;&#9;&#9;&#9;c8.255,1.971,17,3.097,26.334,3.097c0-40.213-18.782-76.542-49.002-102.52"/>
		<path style="fill:none;stroke:#000000;stroke-width:15;stroke-linecap:round;stroke-linejoin:round;stroke-miterlimit:10;" d="&#10;&#9;&#9;&#9;M206.614,284.409c-35.905,17.356-61.287,53.034-63.995,94.907"/>
		<path style="fill:none;stroke:#000000;stroke-width:15;stroke-linecap:round;stroke-linejoin:round;stroke-miterlimit:10;" d="&#10;&#9;&#9;&#9;M369.381,379.316c-2.708-41.873-28.09-77.551-63.995-94.907"/>
		<path style="fill:none;stroke:#000000;stroke-width:15;stroke-linecap:round;stroke-linejoin:round;stroke-miterlimit:10;" d="&#10;&#9;&#9;&#9;M212.484,286.269c-0.404,24.252,19.271,44.181,43.516,44.158c24.245,0.023,43.92-19.906,43.516-44.158"/>
		<path style="fill:none;stroke:#000000;stroke-width:15;stroke-linecap:round;stroke-linejoin:round;stroke-miterlimit:10;" d="&#10;&#9;&#9;&#9;M368.286,241.302c16.095-19.944,25.566-44.357,25.566-70.726c0-7.988-0.879-15.794-2.538-23.354"/>
		<path style="fill:none;stroke:#000000;stroke-width:15;stroke-linecap:round;stroke-linejoin:round;stroke-miterlimit:10;" d="&#10;&#9;&#9;&#9;M120.66,147.34c-1.642,7.523-2.512,15.289-2.512,23.236c0,67.322,61.718,121.898,137.852,121.898&#10;&#9;&#9;&#9;c34.624,0,66.263-11.29,90.475-29.93"/>
		<path style="fill:none;stroke:#000000;stroke-width:15;stroke-linecap:round;stroke-linejoin:round;stroke-miterlimit:10;" d="&#10;&#9;&#9;&#9;M208.439,504.5h158.345c12.741,0,23.07-10.329,23.07-23.07v-30.045"/>
		<path style="fill:none;stroke:#000000;stroke-width:15;stroke-linecap:round;stroke-linejoin:round;stroke-miterlimit:10;" d="&#10;&#9;&#9;&#9;M122.146,451.385v30.045c0,12.741,10.329,23.07,23.07,23.07h28.223"/>
	</g>
</g>
<g>
</g>
<g>
</g>
<g>
</g>
<g>
</g>
<g>
</g>
<g>
</g>
<g>
</g>
<g>
</g>
<g>
</g>
<g>
</g>
<g>
</g>
<g>
</g>
<g>
</g>
<g>
</g>
<g>
</g>
</svg>