<svg id="Layer_1" enable-background="new 0 0 64 64" viewBox="0 0 64 64" xmlns="http://www.w3.org/2000/svg"><path d="m22.9433594 32.3300781c4.4355469 0 8.0439453-3.6083984 8.0439453-8.0439453 0-4.4345703-3.6083984-8.0429688-8.0439453-8.0429688-4.4345703 0-8.0429688 3.6083984-8.0429688 8.0429688 0 4.4355469 3.6083985 8.0439453 8.0429688 8.0439453zm0-14.086914c3.3330078 0 6.0439453 2.7109375 6.0439453 6.0429688 0 3.3330078-2.7109375 6.0439453-6.0439453 6.0439453-3.3320312 0-6.0429688-2.7109375-6.0429688-6.0439453 0-3.3320313 2.7109375-6.0429688 6.0429688-6.0429688z"/><path d="m27.2441406 35.4755859h-8.6005859c-4.4726562 0-8.1113281 3.6308594-8.1113281 8.09375v3.1875c0 .5527344.4472656 1 1 1s1-.4472656 1-1v-3.1875c0-3.3603516 2.7412109-6.09375 6.1113281-6.09375h8.6005859c3.3701172 0 6.1113281 2.7333984 6.1113281 6.09375v3.1875c0 .5527344.4472656 1 1 1s1-.4472656 1-1v-3.1875c.0000001-4.4628906-3.6386718-8.09375-8.1113281-8.09375z"/><path d="m5 57.7636719h54c.5527344 0 1-.4472656 1-1v-49.5273438c0-.5527344-.4472656-1-1-1h-54c-.5527344 0-1 .4472656-1 1v49.5273438c0 .5527343.4472656 1 1 1zm1-49.5273438h52v47.5273438h-52z"/><path d="m50.8388672 22.6992188h-11.4042969c-.5527344 0-1 .4472656-1 1s.4472656 1 1 1h11.4042969c.5527344 0 1-.4472656 1-1s-.4472656-1-1-1z"/><path d="m47.2607422 31h-7.8261719c-.5527344 0-1 .4472656-1 1s.4472656 1 1 1h7.8261719c.5527344 0 1-.4472656 1-1s-.4472656-1-1-1z"/></svg>