<svg version="1.1" id="Capa_1" xmlns="http://www.w3.org/2000/svg" xmlns:xlink="http://www.w3.org/1999/xlink" x="0px" y="0px" viewBox="0 0 512.002 512.002" style="enable-background:new 0 0 512.002 512.002;" xml:space="preserve">
<g>
	<g>
		
			<line style="fill-rule:evenodd;clip-rule:evenodd;fill:none;stroke:#000000;stroke-width:20;stroke-linecap:round;stroke-linejoin:round;stroke-miterlimit:2.6131;" x1="216.001" y1="372.25" x2="216.001" y2="497.002"/>
		
			<line style="fill-rule:evenodd;clip-rule:evenodd;fill:none;stroke:#000000;stroke-width:20;stroke-linecap:round;stroke-linejoin:round;stroke-miterlimit:2.6131;" x1="296.001" y1="374.475" x2="296.001" y2="497.002"/>
		
			<path style="fill-rule:evenodd;clip-rule:evenodd;fill:none;stroke:#000000;stroke-width:20;stroke-linecap:round;stroke-linejoin:round;stroke-miterlimit:2.6131;" d="&#10;&#9;&#9;&#9;M296.001,388.691c-0.002,21.998-18.001,39.995-40,39.995c-21.999,0-39.999-17.998-40-39.997"/>
		
			<path style="fill-rule:evenodd;clip-rule:evenodd;fill:none;stroke:#000000;stroke-width:20;stroke-linecap:round;stroke-linejoin:round;stroke-miterlimit:2.6131;" d="&#10;&#9;&#9;&#9;M128.563,262.301c7.139,35.578,22.735,65.751,52.217,88.242c18.084,13.795,52.013,31.621,75.242,31.621&#10;&#9;&#9;&#9;c23.228,0,57.158-17.825,75.242-31.621c29.43-22.451,45.022-52.557,52.179-88.055"/>
		
			<path style="fill-rule:evenodd;clip-rule:evenodd;fill:none;stroke:#000000;stroke-width:20;stroke-linecap:round;stroke-linejoin:round;stroke-miterlimit:2.6131;" d="&#10;&#9;&#9;&#9;M343.455,341.825c55.092,30.864,92.546,89.846,92.546,157.159v3.018h-360v-3.018c0-67.023,37.132-125.785,91.833-156.757"/>
		
			<path style="fill-rule:evenodd;clip-rule:evenodd;fill:none;stroke:#000000;stroke-width:20;stroke-linecap:round;stroke-linejoin:round;stroke-miterlimit:2.6131;" d="&#10;&#9;&#9;&#9;M366.002,359.973v39.078h-65.001 M211.001,399.051h-64.999v-39.078"/>
		
			<path style="fill-rule:evenodd;clip-rule:evenodd;fill:none;stroke:#000000;stroke-width:20;stroke-linecap:round;stroke-linejoin:round;stroke-miterlimit:2.6131;" d="&#10;&#9;&#9;&#9;M366.001,492.002l0-43.381 M146.002,448.621v43.381"/>
		
			<path style="fill-rule:evenodd;clip-rule:evenodd;fill:none;stroke:#000000;stroke-width:20;stroke-linecap:round;stroke-linejoin:round;stroke-miterlimit:2.6131;" d="&#10;&#9;&#9;&#9;M363.617,52.897c34.459,0,62.652,28.195,62.652,62.653v67.281"/>
		
			<line style="fill-rule:evenodd;clip-rule:evenodd;fill:none;stroke:#000000;stroke-width:20;stroke-linecap:round;stroke-linejoin:round;stroke-miterlimit:2.6131;" x1="241.001" y1="235.133" x2="271.001" y2="235.133"/>
		
			<path style="fill-rule:evenodd;clip-rule:evenodd;fill:none;stroke:#000000;stroke-width:20;stroke-linecap:round;stroke-linejoin:round;stroke-miterlimit:2.6131;" d="&#10;&#9;&#9;&#9;M151.002,462.002h59.999 M301.001,462.002h60"/>
		
			<path style="fill-rule:evenodd;clip-rule:evenodd;fill:none;stroke:#000000;stroke-width:20;stroke-linecap:round;stroke-linejoin:round;stroke-miterlimit:2.6131;" d="&#10;&#9;&#9;&#9;M391.001,242.861h25c13.75,0,25-11.25,25-25v-10c0-13.75-11.25-25-25-25H305.976c-16.486,0-29.975,13.489-29.975,29.975v22.298&#10;&#9;&#9;&#9;c0,28.75,23.523,52.272,52.272,52.272h10.455c28.75,0,52.273-23.522,52.273-52.273v-47.273 M390.952,182.861&#10;&#9;&#9;&#9;c-17.78-0.026-27.334-14.589-27.334-32.383v-75.28 M120.657,242.861H96.001c-13.749,0-25-11.252-25-25v-10&#10;&#9;&#9;&#9;c0-13.748,11.251-25,25-25h110.025c16.486,0,29.975,13.489,29.975,29.975v22.298c0,28.75-23.522,52.272-52.272,52.272h-10.455&#10;&#9;&#9;&#9;c-28.75,0-52.273-23.522-52.273-52.273v-47.273 M121.008,182.861c17.807-0.003,27.377-14.575,27.377-32.383&#10;&#9;&#9;&#9;c0-17.811,14.572-32.384,32.384-32.384h139.952c23.594,0,42.897-19.303,42.897-42.897v-22.3C363.617,29.304,339.314,10,315.72,10&#10;&#9;&#9;&#9;h-81.542c-33.184,0-63.916,11.036-88.707,29.618 M93.315,111.712c-4.917,14.71-7.584,30.426-7.584,46.735v25.284"/>
		
			<line style="fill-rule:evenodd;clip-rule:evenodd;fill:none;stroke:#000000;stroke-width:20;stroke-linecap:round;stroke-linejoin:round;stroke-miterlimit:2.6131;" x1="113.909" y1="71.693" x2="113.917" y2="71.693"/>
	</g>
</g>
<g>
</g>
<g>
</g>
<g>
</g>
<g>
</g>
<g>
</g>
<g>
</g>
<g>
</g>
<g>
</g>
<g>
</g>
<g>
</g>
<g>
</g>
<g>
</g>
<g>
</g>
<g>
</g>
<g>
</g>
</svg>