<svg id="Layer_1" enable-background="new 0 0 64 64" viewBox="0 0 64 64" xmlns="http://www.w3.org/2000/svg"><path d="m32 30.1323242c7.2514648 0 13.1513672-5.8999023 13.1513672-13.1513672s-5.8999024-13.1513672-13.1513672-13.1513672-13.1513672 5.8999024-13.1513672 13.1513672 5.8999024 13.1513672 13.1513672 13.1513672zm0-24.3027344c6.1489258 0 11.1513672 5.0024414 11.1513672 11.1513672s-5.0024414 11.1513672-11.1513672 11.1513672-11.1513672-5.0024414-11.1513672-11.1513672 5.0024414-11.1513672 11.1513672-11.1513672z"/><path d="m10.9301758 60.1704102h42.1396484c.5522461 0 1-.4477539 1-1v-2.1450195c0-12.1694336-9.9003906-22.0698242-22.0698242-22.0698242s-22.0698242 9.9003905-22.0698242 22.0698241v2.1450195c0 .5522461.4477539 1.0000001 1 1.0000001zm1-3.1450196c0-11.0664062 9.003418-20.0698242 20.0698242-20.0698242s20.0698242 9.003418 20.0698242 20.0698242v1.1450195h-40.1396484z"/></svg>