<svg id="Capa_1" enable-background="new 0 0 511 511" height="512" viewBox="0 0 511 511" width="512" xmlns="http://www.w3.org/2000/svg"><g id="Outline_38_" fill="#013b95"><path d="m0 18v437.5c0 20.678 16.822 37.5 37.5 37.5h436c20.678 0 37.5-16.822 37.5-37.5v-437.5zm496 437.5c0 12.406-10.094 22.5-22.5 22.5h-436c-12.406 0-22.5-10.094-22.5-22.5v-354.5h481zm0-369.5h-481v-53h481z"/><path d="m103.5 52h15v15h-15z"/><path d="m43.5 52h15v15h-15z"/><path d="m73.5 52h15v15h-15z"/><path d="m470.5 429h-138.03l-34-50h-90.47v-85h90v-7.5c0-53.762-43.738-97.5-97.5-97.5s-97.5 43.738-97.5 97.5v7.5h90v85h-69.541l-38.767-56.731-12.385 8.463 38.604 56.493-19.216 41.775h-51.195v15h430zm-277.5 0h-84.795l16.1-35h68.695zm89.662-150h-41.781c-.647-22.091-4.136-42.717-10.005-58.722-1.77-4.828-3.638-8.942-5.561-12.443 31.108 9.835 54.312 37.624 57.347 71.165zm-122.543 0h-41.781c3.035-33.541 26.239-61.33 57.347-71.165-1.923 3.501-3.791 7.615-5.561 12.443-5.868 16.005-9.357 36.631-10.005 58.722zm15.005 0c1.405-46.023 15.506-75 25.376-75s23.972 28.977 25.376 75zm32.876 150v-35h82.53l23.8 35z"/><path d="m383.5 231c20.678 0 37.5-16.822 37.5-37.5s-16.822-37.5-37.5-37.5-37.5 16.822-37.5 37.5 16.822 37.5 37.5 37.5zm0-60c12.406 0 22.5 10.094 22.5 22.5s-10.094 22.5-22.5 22.5-22.5-10.094-22.5-22.5 10.094-22.5 22.5-22.5z"/><path d="m376 126h15v15h-15z"/><path d="m376 246h15v15h-15z"/><path d="m333.574 143.573h15v15.001h-15z" transform="matrix(.707 -.707 .707 .707 -6.927 285.424)"/><path d="m418.426 228.426h15v15.001h-15z" transform="matrix(.707 -.707 .707 .707 -42.074 370.277)"/><path d="m316 186h15v15h-15z"/><path d="m436 186h15v15h-15z"/><path d="m333.573 228.426h15.001v15h-15.001z" transform="matrix(.707 -.707 .707 .707 -66.927 310.277)"/><path d="m418.426 143.574h15.001v15h-15.001z" transform="matrix(.707 -.707 .707 .707 17.926 345.424)"/></g></svg>