<svg id="Capa_1" enable-background="new 0 0 511 511" height="512" viewBox="0 0 511 511" width="512" xmlns="http://www.w3.org/2000/svg"><g fill="#233d91"><path d="m312.691 172 15.86-25.773 34.581 1.839-10.049 86.934h42.419l36-86.5h48.498c17.094 0 31-13.906 31-31s-13.906-31-31-31h-48.498l-36-86.5h-42.419l10.05 86.935-34.581 1.839-15.861-25.774h-52.983l25.511 54.5-25.511 54.5zm-29.399-94h21.017l16.14 26.227 59.419-3.161-9.951-86.066h15.581l36 86.5h58.502c8.822 0 16 7.178 16 16s-7.178 16-16 16h-58.502l-36 86.5h-15.581l9.95-86.065-59.419-3.161-16.139 26.226h-21.017l18.489-39.5z"/><path d="m107.5 356h-7.5v-65h12.5v-15h-90v15h12.5v65h-7.5c-15.163 0-27.5 12.337-27.5 27.5v100c0 15.163 12.337 27.5 27.5 27.5h80c15.163 0 27.5-12.337 27.5-27.5v-100c0-15.163-12.337-27.5-27.5-27.5zm-57.5-65h35v65h-35zm70 192.5c0 6.893-5.607 12.5-12.5 12.5h-80c-6.893 0-12.5-5.607-12.5-12.5v-100c0-6.893 5.607-12.5 12.5-12.5h80c6.893 0 12.5 5.607 12.5 12.5z"/><path d="m30 388.5h15v90h-15z"/><path d="m60 388.5h15v90h-15z"/><path d="m90 388.5h15v90h-15z"/><path d="m260 376h-65v30h-45v105h155v-105h-45zm15 45h15v75h-15zm-65-30h35v15h-35zm-30 105h-15v-75h15zm80 0h-65v-75h65z"/><path d="m447.5 338h-254c-12.406 0-22.5-10.094-22.5-22.5s10.094-22.5 22.5-22.5h70c22.883 0 41.5-18.617 41.5-41.5s-18.617-41.5-41.5-41.5h-206c-23.435 0-42.5-19.065-42.5-42.5s19.065-42.5 42.5-42.5h130v-15h-130c-31.706 0-57.5 25.794-57.5 57.5s25.794 57.5 57.5 57.5h206c14.612 0 26.5 11.888 26.5 26.5s-11.888 26.5-26.5 26.5h-70c-20.678 0-37.5 16.822-37.5 37.5s16.822 37.5 37.5 37.5h254c26.743 0 48.5 21.757 48.5 48.5s-21.757 48.5-48.5 48.5h-57v15h57c35.014 0 63.5-28.486 63.5-63.5s-28.486-63.5-63.5-63.5z"/><path d="m360.5 450h15v15h-15z"/><path d="m330.5 450h15v15h-15z"/><path d="m202.5 110h15v15h-15z"/><path d="m232.5 110h15v15h-15z"/></g></svg>