<svg id="Layer_1" enable-background="new 0 0 512 512" height="512" viewBox="0 0 512 512" width="512" xmlns="http://www.w3.org/2000/svg"><path clip-rule="evenodd" d="m274.39 469.21c0-3.87 3.1-7 6.96-7h.08c3.87 0 7 3.13 7 7s-3.13 7-7 7-7.04-3.14-7.04-7zm-25.15 0c0-3.87 3.09-7 6.96-7h.08c3.87 0 7 3.13 7 7s-3.13 7-7 7c-3.86 0-7.04-3.14-7.04-7zm-25.14 0c0-3.87 3.1-7 6.96-7h.08c3.87 0 7 3.13 7 7s-3.13 7-7 7-7.04-3.14-7.04-7zm167.55-161c0-3.86 3.13-7 6.99-7h28c3.86 0 7 3.13 7 7s-3.14 7-7 7h-28c-3.85 0-6.99-3.13-6.99-7zm-66.68 0c0-3.86 3.13-7 7-7h27.99c3.87 0 7 3.13 7 7s-3.13 7-7 7h-27.99c-3.87 0-7-3.13-7-7zm-246.12 0c0-3.86 3.13-7 7-7h200.01c3.87 0 7 3.13 7 7s-3.13 7-7 7h-200.01c-3.87 0-7-3.13-7-7zm354.79-214.57c0 3.87-3.14 7-7 7h-28c-3.86 0-6.99-3.13-6.99-7s3.13-7 6.99-7h28c3.86 0 7 3.13 7 7zm-66.68 0c0 3.87-3.13 7-7 7h-27.99c-3.86 0-7-3.13-7-7s3.13-7 7-7h27.99c3.86 0 7 3.13 7 7zm-74.1 0c0 3.87-3.13 7-7 7h-200.01c-3.87 0-7-3.13-7-7s3.13-7 7-7h200.01c3.87 0 7 3.13 7 7zm120 130.47h-313.23v-46.36h313.24v46.36zm63.98 30.67c0-9.19-7.48-16.67-16.67-16.67h-407.85c-9.19 0-16.67 7.48-16.67 16.67v106.87c0 9.19 7.48 16.67 16.67 16.67h407.86c9.19 0 16.67-7.48 16.67-16.67v-106.87zm-441.19-107.7c0 9.19 7.48 16.67 16.67 16.67h407.86c9.19 0 16.67-7.48 16.67-16.67v-106.87c0-9.19-7.48-16.67-16.67-16.67h-407.86c-9.19 0-16.67 7.48-16.67 16.67zm275.28 306.99c0-2.86-2.33-5.2-5.2-5.2h-98.97c-2.86 0-5.19 2.33-5.19 5.2v30.26c0 2.86 2.33 5.2 5.19 5.2h98.97c2.86 0 5.2-2.33 5.2-5.2zm149.25-276.32c16.91 0 30.67-13.76 30.67-30.67v-106.87c0-16.91-13.76-30.67-30.67-30.67h-407.86c-16.91 0-30.67 13.76-30.67 30.67v106.87c0 16.91 13.76 30.67 30.67 30.67h33.31v46.36h-33.31c-16.91 0-30.67 13.76-30.67 30.67v106.87c0 16.91 13.76 30.67 30.67 30.67h196.93v42.56h-42.49c-10.58 0-19.2 8.61-19.2 19.2v8.13h-158.92c-3.87 0-7 3.13-7 7s3.13 7 7 7h158.92v8.13c0 10.59 8.61 19.2 19.2 19.2h98.97c10.58 0 19.2-8.61 19.2-19.2v-8.13h158.92c3.87 0 7-3.13 7-7s-3.13-7-7-7h-158.92v-8.13c0-10.59-8.61-19.2-19.2-19.2h-42.49v-42.56h196.93c16.91 0 30.67-13.76 30.67-30.67v-106.87c0-16.91-13.76-30.67-30.67-30.67h-33.31v-46.36z" fill="#ffd064" fill-rule="evenodd"/></svg>