<svg id="Layer_1" enable-background="new 0 0 512 512" height="512" viewBox="0 0 512 512" width="512" xmlns="http://www.w3.org/2000/svg"><path clip-rule="evenodd" d="m263.26 454c0 3.86-3.15 7-7 7h-119.41c-11.7 0-21.16-9.49-21.16-21.16v-100.63l-23.2 23.2c-2.74 2.73-7.16 2.73-9.9 0s-2.74-7.17 0-9.9l35.15-35.15c2.7-2.73 7.16-2.73 9.9 0l35.15 35.15c2.7 2.73 2.7 7.17 0 9.9-2.74 2.73-7.2 2.73-9.9 0l-23.2-23.2v100.63c0 3.95 3.19 7.16 7.16 7.16h119.41c3.85 0 7 3.13 7 7zm-14.04-394.94c0-3.86 3.15-7 7.04-7h119.36c11.7 0 21.16 9.49 21.16 21.16v100.63l23.2-23.2c2.74-2.73 7.16-2.73 9.9 0s2.74 7.17 0 9.9l-35.15 35.15c-1.35 1.36-3.15 2.05-4.95 2.05-1.76 0-3.56-.69-4.95-2.05l-35.15-35.15c-2.7-2.73-2.7-7.17 0-9.9 2.74-2.73 7.2-2.73 9.9 0l23.2 23.2v-100.63c0-3.95-3.19-7.16-7.16-7.16h-119.36c-3.89 0-7.04-3.13-7.04-7zm210.25 423.71c-18.86 4.36-43.62 6.76-69.69 6.76s-50.78-2.4-69.69-6.76c-20.87-4.82-26.88-10.29-27.38-11.89v-33.76c22.51 11.71 67.23 15.3 97.06 15.3s74.6-3.59 97.1-15.3v33.76c-.48 1.6-6.49 7.07-27.4 11.89zm-139.21-228.12c18.86-4.35 43.58-6.75 69.52-6.75 25.98 0 50.66 2.4 69.56 6.75 20.62 4.76 26.84 10.13 27.54 11.83-.7 1.7-6.92 7.08-27.54 11.84-18.91 4.35-43.58 6.75-69.56 6.75-25.94 0-50.66-2.4-69.52-6.75-20.62-4.76-26.84-10.14-27.54-11.84.69-1.7 6.91-7.08 27.54-11.83zm166.62 165.11v-33.75c-22.51 11.7-67.27 15.29-97.1 15.29s-74.56-3.59-97.06-15.29v33.75c.45 1.58 6.47 7.06 27.38 11.9 18.91 4.36 43.62 6.76 69.69 6.76 26.11 0 50.86-2.4 69.69-6.76 20.94-4.84 26.91-10.32 27.4-11.9zm0-51.12c-.49 1.59-6.47 7.07-27.42 11.9-18.86 4.36-43.62 6.76-69.69 6.76s-50.78-2.4-69.69-6.76c-20.91-4.83-26.93-10.31-27.38-11.9v-33.75c22.51 11.71 67.23 15.29 97.06 15.29s74.6-3.58 97.1-15.29v33.75zm0-51.12v-33.74c-22.51 11.7-67.27 15.29-97.1 15.29s-74.56-3.59-97.06-15.29v33.74c.45 1.59 6.47 7.07 27.38 11.91 18.91 4.35 43.62 6.75 69.69 6.75 26.11 0 50.86-2.4 69.69-6.75 20.94-4.84 26.91-10.32 27.4-11.91zm-97.1-83.62c-41.25 0-111.06 6.86-111.06 32.58v.03 204.44c0 25.72 69.81 32.58 111.06 32.58 41.29 0 111.1-6.86 111.1-32.58v-204.47c0-25.72-69.81-32.58-111.1-32.58zm-364.19 12.61v-33.76c22.51 11.71 67.27 15.29 97.1 15.29s74.56-3.58 97.1-15.29v33.76c-.53 1.6-6.55 7.07-27.42 11.89-18.86 4.36-43.62 6.76-69.69 6.76s-50.82-2.4-69.69-6.76c-20.89-4.82-26.91-10.29-27.4-11.89zm27.54-216.23c18.91-4.35 43.58-6.75 69.56-6.75 25.94 0 50.66 2.4 69.52 6.75 20.62 4.75 26.84 10.13 27.54 11.83-.7 1.7-6.92 7.08-27.54 11.83-18.86 4.36-43.58 6.76-69.52 6.76-25.98 0-50.66-2.4-69.56-6.76-20.62-4.75-26.84-10.13-27.54-11.83.7-1.7 6.92-7.08 27.54-11.83zm-27.54 29.12v33.75c.49 1.59 6.47 7.07 27.42 11.91 18.86 4.35 43.62 6.75 69.69 6.75s50.82-2.4 69.69-6.75c20.91-4.84 26.93-10.32 27.42-11.91v-33.75c-22.55 11.71-67.27 15.3-97.1 15.3-29.85 0-74.61-3.59-97.12-15.3zm0 51.12c22.51 11.7 67.27 15.29 97.1 15.29s74.56-3.59 97.1-15.29v33.75c-.49 1.59-6.51 7.07-27.42 11.9-18.86 4.36-43.62 6.76-69.69 6.76s-50.82-2.4-69.69-6.76c-20.95-4.83-26.93-10.31-27.42-11.9v-33.75zm0 51.12v33.75c.49 1.58 6.47 7.06 27.42 11.9 18.86 4.35 43.62 6.75 69.69 6.75s50.82-2.4 69.69-6.75c20.91-4.84 26.93-10.32 27.42-11.9v-33.75c-22.55 11.7-67.27 15.29-97.1 15.29-29.85 0-74.61-3.59-97.12-15.29zm208.2 84.94v-204.47c0-25.72-69.85-32.58-111.1-32.58-41.29 0-111.1 6.86-111.1 32.58v204.47c0 25.72 69.81 32.58 111.1 32.58 41.25 0 111.1-6.86 111.1-32.58z" fill="#ffd064" fill-rule="evenodd"/></svg>